<svg width="47" height="47" viewBox="0 0 47 47" fill="none" xmlns="http://www.w3.org/2000/svg">
<path d="M28.5357 0H5.03571C2.18214 0 0 2.18214 0 5.03571V33.5714C0 34.2429 0.335714 34.7464 0.839286 35.0821C1.175 35.25 1.34286 35.25 1.67857 35.25C2.01429 35.25 2.35 35.0821 2.51786 34.9143L15.1071 26.8571H28.5357C31.3893 26.8571 33.5714 24.675 33.5714 21.8214V5.03571C33.5714 2.18214 31.3893 0 28.5357 0ZM13.4286 18.4643H10.0714C9.06429 18.4643 8.39286 17.7929 8.39286 16.7857C8.39286 15.7786 9.06429 15.1071 10.0714 15.1071H13.4286C14.4357 15.1071 15.1071 15.7786 15.1071 16.7857C15.1071 17.7929 14.4357 18.4643 13.4286 18.4643ZM18.4643 11.75H10.0714C9.06429 11.75 8.39286 11.0786 8.39286 10.0714C8.39286 9.06429 9.06429 8.39286 10.0714 8.39286H18.4643C19.4714 8.39286 20.1429 9.06429 20.1429 10.0714C20.1429 11.0786 19.4714 11.75 18.4643 11.75Z" fill="#606789"/>
<path d="M41.9643 11.75H36.9286V21.8214C36.9286 26.5214 33.2357 30.2143 28.5357 30.2143H16.1143L13.4286 31.8929V33.5714C13.4286 36.425 15.6107 38.6071 18.4643 38.6071H31.8929L44.4821 46.6643C44.8179 46.8321 45.1536 47 45.3214 47C45.6571 47 45.825 47 46.1607 46.8321C46.6643 46.4964 47 45.9929 47 45.3214V16.7857C47 13.9321 44.8179 11.75 41.9643 11.75Z" fill="#606789"/>
</svg>
